# Blender 4.5.5 LTS
# www.blender.org
mtllib cloud-fixed.mtl
o cloud1
v 0.426121 0.020161 -0.000000
v 0.328496 0.157258 -0.000000
v 0.278364 0.358871 -0.000000
v -0.091029 0.350806 -0.000000
v -0.175462 0.266129 -0.000000
v -0.257256 0.270161 -0.000000
v -0.412929 0.088710 -0.000000
v -0.473615 -0.189516 0.000000
v -0.407652 -0.302419 0.000000
v 0.059367 -0.387097 0.000000
v 0.333773 -0.241935 0.000000
v 0.412929 -0.104839 0.000000
v 0.426121 0.020161 -0.030000
v 0.328496 0.157258 -0.030000
v 0.278364 0.358871 -0.030000
v -0.091029 0.350806 -0.030000
v -0.175462 0.266129 -0.030000
v -0.257256 0.270161 -0.030000
v -0.412929 0.088710 -0.030000
v -0.473615 -0.189516 -0.030000
v -0.407652 -0.302419 -0.030000
v 0.059367 -0.387097 -0.030000
v 0.333773 -0.241935 -0.030000
v 0.412929 -0.104839 -0.030000
vn -0.0000 -0.0000 1.0000
vn -0.0000 -0.0000 -1.0000
vn 0.8146 0.5801 -0.0000
vn 0.9704 0.2413 -0.0000
vn -0.0218 0.9998 -0.0000
vn -0.7081 0.7061 -0.0000
vn 0.0492 0.9988 -0.0000
vn -0.7590 0.6511 -0.0000
vn -0.9770 0.2131 -0.0000
vn -0.8634 -0.5045 -0.0000
vn -0.1784 -0.9840 -0.0000
vn 0.4676 -0.8839 -0.0000
vn 0.8660 -0.5000 -0.0000
vn 0.9945 -0.1050 -0.0000
vt 0.828496 0.657258
vt 0.833773 0.258065
vt 0.912929 0.395161
vt 0.087071 0.588710
vt 0.092348 0.197581
vt 0.559367 0.112903
vt 0.026385 0.310484
vt 0.324538 0.766129
vt 0.242744 0.770161
vt 0.778364 0.858871
vt 0.408971 0.850806
vt 0.926121 0.520161
s 0
usemtl sprite_material
f 2/1/1 11/2/1 12/3/1
f 7/4/1 9/5/1 10/6/1
f 9/5/1 7/4/1 8/7/1
f 7/4/1 5/8/1 6/9/1
f 2/1/1 3/10/1 4/11/1
f 12/3/1 1/12/1 2/1/1
f 5/8/1 7/4/1 10/6/1
f 4/11/1 5/8/1 2/1/1
f 10/6/1 11/2/1 2/1/1
f 2/1/1 5/8/1 10/6/1
f 14/1/2 24/3/2 23/2/2
f 19/4/2 22/6/2 21/5/2
f 21/5/2 20/7/2 19/4/2
f 19/4/2 18/9/2 17/8/2
f 14/1/2 16/11/2 15/10/2
f 24/3/2 14/1/2 13/12/2
f 17/8/2 22/6/2 19/4/2
f 16/11/2 14/1/2 17/8/2
f 22/6/2 14/1/2 23/2/2
f 14/1/2 22/6/2 17/8/2
f 1/12/3 13/12/3 2/1/3
f 2/1/3 13/12/3 14/1/3
f 2/1/4 14/1/4 3/10/4
f 3/10/4 14/1/4 15/10/4
f 3/10/5 15/10/5 4/11/5
f 4/11/5 15/10/5 16/11/5
f 4/11/6 16/11/6 5/8/6
f 5/8/6 16/11/6 17/8/6
f 5/8/7 17/8/7 6/9/7
f 6/9/7 17/8/7 18/9/7
f 6/9/8 18/9/8 7/4/8
f 7/4/8 18/9/8 19/4/8
f 7/4/9 19/4/9 8/7/9
f 8/7/9 19/4/9 20/7/9
f 8/7/10 20/7/10 9/5/10
f 9/5/10 20/7/10 21/5/10
f 9/5/11 21/5/11 10/6/11
f 10/6/11 21/5/11 22/6/11
f 10/6/12 22/6/12 11/2/12
f 11/2/12 22/6/12 23/2/12
f 11/2/13 23/2/13 12/3/13
f 12/3/13 23/2/13 24/3/13
f 12/3/14 24/3/14 1/12/14
f 1/12/14 24/3/14 13/12/14
